HIERARCHY
ROOT joint_Root
{
	OFFSET 0.0 0.0 0.0
	CHANNELS 6 Xposition Yposition Zposition Zrotation Xrotation Yrotation 
	JOINT Hips
	{
		OFFSET 4.5925 91.4895 -427.239
		CHANNELS 6 Xposition Yposition Zposition Zrotation Xrotation Yrotation 
		JOINT Spine
		{
			OFFSET 15.7357 0.0 0.0
			CHANNELS 6 Xposition Yposition Zposition Zrotation Xrotation Yrotation 
			JOINT Chest
			{
				OFFSET 8.98455 -0.406207 0.0
				CHANNELS 6 Xposition Yposition Zposition Zrotation Xrotation Yrotation 
				JOINT Neck
				{
					OFFSET 16.3773 0.0 0.0
					CHANNELS 6 Xposition Yposition Zposition Zrotation Xrotation Yrotation 
					JOINT Head
					{
						OFFSET 6.45672 0.0 0.0
						CHANNELS 6 Xposition Yposition Zposition Zrotation Xrotation Yrotation 
						End Site
						{
							OFFSET 0.0 0.0 0.0
						}
					}
				}
				JOINT Shoulder_L
				{
					OFFSET 12.9942 -0.242716 4.98039
					CHANNELS 6 Xposition Yposition Zposition Zrotation Xrotation Yrotation 
					JOINT UpperArm_L
					{
						OFFSET 5.34809 0.0 0.0
						CHANNELS 6 Xposition Yposition Zposition Zrotation Xrotation Yrotation 
						JOINT LowerArm_L
						{
							OFFSET 24.3286 1.87007e-05 0.0
							CHANNELS 6 Xposition Yposition Zposition Zrotation Xrotation Yrotation 
							JOINT Hand_L
							{
								OFFSET 22.2916 0.0 0.0
								CHANNELS 6 Xposition Yposition Zposition Zrotation Xrotation Yrotation 
								End Site
								{
									OFFSET 0.0 0.0 0.0
								}
							}
						}
					}
				}
				JOINT Shoulder_R
				{
					OFFSET 12.9945 -0.242716 -4.98039
					CHANNELS 6 Xposition Yposition Zposition Zrotation Xrotation Yrotation 
					JOINT UpperArm_R
					{
						OFFSET -5.34813 0.0 0.0
						CHANNELS 6 Xposition Yposition Zposition Zrotation Xrotation Yrotation 
						JOINT LowerArm_R
						{
							OFFSET -24.3289 0.000322201 0.0
							CHANNELS 6 Xposition Yposition Zposition Zrotation Xrotation Yrotation 
							JOINT Hand_R
							{
								OFFSET -22.2915 -0.000108084 0.0
								CHANNELS 6 Xposition Yposition Zposition Zrotation Xrotation Yrotation 
								End Site
								{
									OFFSET 0.0 0.0 0.0
								}
							}
						}
					}
				}
			}
		}
		JOINT UpperLeg_L
		{
			OFFSET -2.19248 -6.46944 0.0
			CHANNELS 6 Xposition Yposition Zposition Zrotation Xrotation Yrotation 
			JOINT LowerLeg_L
			{
				OFFSET 39.0811 0.0 -1.23785e-05
				CHANNELS 6 Xposition Yposition Zposition Zrotation Xrotation Yrotation 
				JOINT Foot_L
				{
					OFFSET 40.9854 0.0 -1.26872e-05
					CHANNELS 6 Xposition Yposition Zposition Zrotation Xrotation Yrotation 
					JOINT Toes_L
					{
						OFFSET 11.7543 0.0 0.0
						CHANNELS 6 Xposition Yposition Zposition Zrotation Xrotation Yrotation 
						End Site
						{
							OFFSET 0.0 0.0 0.0
						}
					}
				}
			}
		}
		JOINT UpperLeg_R
		{
			OFFSET -2.19251 6.46944 0.0
			CHANNELS 6 Xposition Yposition Zposition Zrotation Xrotation Yrotation 
			JOINT LowerLeg_R
			{
				OFFSET -39.0811 -0.00228153 -0.0401928
				CHANNELS 6 Xposition Yposition Zposition Zrotation Xrotation Yrotation 
				JOINT Foot_R
				{
					OFFSET -40.9854 0.0 0.0
					CHANNELS 6 Xposition Yposition Zposition Zrotation Xrotation Yrotation 
					JOINT Toes_R
					{
						OFFSET -11.7543 0.0 0.0
						CHANNELS 6 Xposition Yposition Zposition Zrotation Xrotation Yrotation 
						End Site
						{
							OFFSET 0.0 0.0 0.0
						}
					}
				}
			}
		}
	}
}
MOTION
Frames:	6
Frame Time:	0.0333333
0.000000 0.000000 0.000000 0.000000 0.000000 -0.000000 -0.420681 90.026700 -5.798900 89.264400 -2.546910 10.936800 15.735700 0.000005 -0.000001 89.091000 76.169200 -89.352900 8.984550 -0.406207 -0.000000 19.891600 -0.456667 -0.445231 16.377300 -0.000001 -0.000001 3.947040 -4.121820 2.781580 6.456720 -0.000001 -0.000000 -12.421200 -3.550570 0.963700 12.994200 -0.242716 4.980390 -91.011600 4.994760 -78.535400 5.348090 -0.000007 -0.000001 -52.415300 36.859200 -33.857300 24.328600 0.000019 0.000005 8.075870 19.080500 -23.463500 22.291600 -0.000001 0.000005 11.264500 5.229620 1.965400 12.994500 -0.242716 -4.980390 89.429700 9.313160 -86.480500 -5.348130 -0.000001 -0.000004 -55.099900 35.064400 -27.873900 -24.328900 0.000322 -0.000009 1.673010 4.376060 -20.958500 -22.291500 -0.000108 -0.000004 15.015100 5.396270 -2.816620 -2.192480 -6.469440 -0.000000 -175.052000 -11.404700 -5.998350 39.081100 -0.000007 -0.000012 -0.182837 0.249700 36.212900 40.985400 -0.000006 -0.000013 0.653069 4.884430 -69.181200 11.754300 -0.000000 0.000003 -0.000090 -0.000943 -16.613800 -2.192510 6.469440 -0.000001 175.895000 18.674100 175.133000 -39.081100 -0.002282 -0.040193 -0.127115 0.181638 35.676100 -40.985400 0.000008 0.000006 4.829670 10.052300 -70.033800 -11.754300 -0.000006 -0.000006 -0.003516 -0.046311 -18.456700
0.000000 0.000000 0.000000 0.000000 0.000000 -0.000000 -0.399134 90.016800 -5.826770 89.260000 -2.527610 10.974300 15.735700 0.000005 -0.000001 89.150100 76.131700 -89.402800 8.984550 -0.406207 -0.000000 19.966900 -0.428995 -0.431416 16.377300 -0.000001 -0.000001 3.952090 -4.117550 2.777440 6.456720 -0.000001 -0.000000 -12.488300 -3.571060 1.013140 12.994200 -0.242716 4.980390 -91.018000 5.002140 -78.481600 5.348090 -0.000007 -0.000001 -52.133800 36.202400 -33.955500 24.328600 0.000019 0.000005 8.316470 18.898500 -24.290200 22.291600 -0.000001 0.000005 11.390500 5.229910 1.957970 12.994500 -0.242716 -4.980390 89.424100 9.341880 -86.456300 -5.348130 -0.000001 -0.000004 -54.989200 35.061000 -27.947700 -24.328900 0.000322 -0.000009 1.693270 4.432450 -20.944200 -22.291500 -0.000108 -0.000004 14.992400 5.396120 -2.811810 -2.192480 -6.469440 -0.000000 -175.057000 -11.389800 -6.003750 39.081100 -0.000007 -0.000012 -0.183707 0.250425 36.263500 40.985400 -0.000006 -0.000013 0.674816 4.900250 -69.193100 11.754300 -0.000000 0.000003 -0.000086 -0.000906 -16.612400 -2.192510 6.469440 -0.000001 175.859000 18.689900 175.140000 -39.081100 -0.002282 -0.040193 -0.134370 0.191526 35.706900 -40.985400 0.000008 0.000006 4.723250 10.072100 -70.005900 -11.754300 -0.000006 -0.000006 -0.003562 -0.046802 -18.476700
0.000000 0.000000 0.000000 0.000000 0.000000 -0.000000 -0.376015 90.021700 -5.859230 89.263600 -2.480200 11.042400 15.735700 0.000005 -0.000001 89.156400 76.091900 -89.401900 8.984550 -0.406207 -0.000000 20.046600 -0.426522 -0.417235 16.377300 -0.000001 -0.000001 3.938010 -4.109480 2.801850 6.456720 -0.000001 -0.000000 -12.502400 -3.556240 1.050920 12.994200 -0.242716 4.980390 -91.028800 5.028980 -78.422300 5.348090 -0.000007 -0.000001 -51.816400 35.484500 -34.093200 24.328600 0.000019 0.000005 8.633090 18.895300 -25.118500 22.291600 -0.000001 0.000005 11.545400 5.233560 1.863370 12.994500 -0.242716 -4.980390 89.417300 9.389450 -86.433000 -5.348130 -0.000001 -0.000004 -54.947700 35.000900 -27.979600 -24.328900 0.000322 -0.000009 1.687820 4.432630 -20.881800 -22.291500 -0.000108 -0.000004 15.012200 5.394510 -2.760040 -2.192480 -6.469440 -0.000000 -175.082000 -11.333700 -5.959560 39.081100 -0.000007 -0.000012 -0.183909 0.250878 36.244100 40.985400 -0.000006 -0.000013 0.685033 4.869100 -69.156600 11.754300 -0.000000 0.000003 -0.000090 -0.000945 -16.613900 -2.192510 6.469440 -0.000001 175.826000 18.733800 175.198000 -39.081100 -0.002282 -0.040193 -0.126490 0.180631 35.696300 -40.985400 0.000008 0.000006 4.778400 10.067700 -69.991100 -11.754300 -0.000006 -0.000006 -0.003769 -0.049012 -18.566700
0.000000 0.000000 0.000000 0.000000 0.000000 -0.000000 -0.361303 90.012800 -5.884740 89.240100 -2.468260 11.077600 15.735700 0.000005 -0.000001 89.177800 76.052600 -89.408400 8.984550 -0.406207 -0.000000 20.125400 -0.415972 -0.388808 16.377300 -0.000001 -0.000001 3.909350 -4.090360 2.854450 6.456720 -0.000001 -0.000000 -12.583600 -3.526900 1.073860 12.994200 -0.242716 4.980390 -91.046200 5.055940 -78.292600 5.348090 -0.000007 -0.000001 -51.712400 34.504900 -34.100100 24.328600 0.000019 0.000005 9.138960 19.063000 -26.222500 22.291600 -0.000001 0.000005 11.753800 5.230720 1.937140 12.994500 -0.242716 -4.980390 89.411900 9.421130 -86.411800 -5.348130 -0.000001 -0.000004 -54.891800 34.952100 -28.044700 -24.328900 0.000322 -0.000009 1.695020 4.464520 -20.826700 -22.291500 -0.000108 -0.000004 15.082100 5.394580 -2.762000 -2.192480 -6.469440 -0.000000 -175.073000 -11.324100 -5.978130 39.081100 -0.000007 -0.000012 -0.179768 0.244710 36.302000 40.985400 -0.000006 -0.000013 0.701162 4.858100 -69.163600 11.754300 -0.000000 0.000003 -0.000088 -0.000923 -16.613000 -2.192510 6.469440 -0.000001 175.829000 18.728000 175.204000 -39.081100 -0.002282 -0.040193 -0.128152 0.182760 35.723700 -40.985400 0.000008 0.000006 4.747060 10.062800 -69.978500 -11.754300 -0.000006 -0.000006 -0.003698 -0.048265 -18.536300
0.000000 0.000000 0.000000 0.000000 0.000000 -0.000000 -0.344960 90.012300 -5.900120 89.243100 -2.477720 11.139200 15.735700 0.000005 -0.000001 89.215200 76.009500 -89.441700 8.984550 -0.406207 -0.000000 20.211800 -0.398940 -0.383189 16.377300 -0.000001 -0.000001 3.895340 -4.077390 2.887420 6.456720 -0.000001 -0.000000 -12.653800 -3.525040 1.171350 12.994200 -0.242716 4.980390 -91.058700 5.068070 -78.184600 5.348090 -0.000007 -0.000001 -51.992600 33.107800 -33.821700 24.328600 0.000019 0.000005 9.820110 19.295200 -27.646200 22.291600 -0.000001 0.000005 12.107300 5.228500 1.994230 12.994500 -0.242716 -4.980390 89.404500 9.456550 -86.380300 -5.348130 -0.000001 -0.000004 -54.842900 34.912200 -28.074000 -24.328900 0.000322 -0.000009 1.698660 4.470600 -20.841700 -22.291500 -0.000108 -0.000004 15.131400 5.394900 -2.772500 -2.192480 -6.469440 -0.000000 -175.066000 -11.344200 -5.919620 39.081100 -0.000007 -0.000012 -0.182771 0.248793 36.302500 40.985400 -0.000006 -0.000013 0.711528 4.861520 -69.160000 11.754300 -0.000000 0.000003 -0.000092 -0.000957 -16.614400 -2.192510 6.469440 -0.000001 175.794000 18.723800 175.257000 -39.081100 -0.002282 -0.040193 -0.129694 0.184857 35.730800 -40.985400 0.000008 0.000006 4.777420 10.083100 -69.979500 -11.754300 -0.000006 -0.000006 -0.003673 -0.047998 -18.525400
0.000000 0.000000 0.000000 0.000000 0.000000 -0.000000 -0.329618 90.006400 -5.914810 89.231300 -2.508610 11.179100 15.735700 0.000005 -0.000001 89.264400 75.972800 -89.485900 8.984550 -0.406207 -0.000000 20.285600 -0.375956 -0.377140 16.377300 -0.000001 -0.000001 3.891340 -4.063350 2.955030 6.456720 -0.000001 -0.000000 -12.732200 -3.530020 1.269480 12.994200 -0.242716 4.980390 -91.086700 5.116200 -77.991900 5.348090 -0.000007 -0.000001 -52.454900 31.350800 -33.407500 24.328600 0.000019 0.000005 10.714000 19.507500 -29.535400 22.291600 -0.000001 0.000005 12.643300 5.219920 2.213870 12.994500 -0.242716 -4.980390 89.398500 9.499340 -86.360300 -5.348130 -0.000001 -0.000004 -54.790200 34.888900 -28.061800 -24.328900 0.000322 -0.000009 1.675180 4.381520 -20.959700 -22.291500 -0.000108 -0.000004 15.116600 5.393530 -2.728320 -2.192480 -6.469440 -0.000000 -175.055000 -11.346300 -5.904690 39.081100 -0.000007 -0.000012 -0.182785 0.248499 36.336900 40.985400 -0.000006 -0.000013 0.720883 4.855490 -69.169400 11.754300 -0.000000 0.000003 -0.000091 -0.000946 -16.613900 -2.192510 6.469440 -0.000001 175.778000 18.737600 175.281000 -39.081100 -0.002282 -0.040193 -0.131489 0.187280 35.741100 -40.985400 0.000008 0.000006 4.702140 10.129100 -69.953600 -11.754300 -0.000006 -0.000006 -0.003578 -0.046979 -18.483900
